<svg width="795" height="155" viewBox="0 0 795 155" fill="none" xmlns="http://www.w3.org/2000/svg">
<path d="M48.3238 79.6546C48.3349 79.3074 48.3405 78.9766 48.3405 78.6625C48.3405 65.7365 45.4667 48.1699 40.1914 33.1487C37.6678 25.9113 34.5771 19.2692 30.9974 14C27.4232 19.2696 24.3325 25.9117 21.8089 33.1487C16.5282 48.1699 13.6598 65.7367 13.6598 78.6625C13.6598 78.9766 13.6654 79.3074 13.6765 79.6546C5.18275 86.6936 -6.63006 116.779 4.59917 141H9.32958C9.32958 141 8.15113 117.364 18.5903 116.383C20.547 127.705 22.3369 136.905 22.3369 136.905H24.6994L24.6938 141H37.3065V136.905H39.669C39.669 136.905 41.4589 127.705 43.4155 116.383C53.8492 117.364 52.6707 141 52.6707 141H57.4012C68.6297 116.779 56.8175 86.7003 48.3238 79.6546ZM24.7827 80.8287C24.7827 77.4277 27.5731 74.6661 31.0029 74.6661C34.4327 74.6661 37.2231 77.4332 37.2231 80.8287C37.2231 84.2298 34.4327 86.9913 31.0029 86.9913C27.5731 86.9913 24.7827 84.2298 24.7827 80.8287ZM30.9973 62.7214C26.6504 62.7214 23.1151 59.2157 23.1151 54.9052C23.1151 50.5947 26.6504 47.0889 30.9973 47.0889C35.3442 47.0889 38.8796 50.5947 38.8796 54.9052C38.8796 59.2157 35.3442 62.7214 30.9973 62.7214Z" fill="#F53937"/>
<path d="M150.773 56.5C150.348 52.5303 148.561 49.4394 145.409 47.2273C142.288 45.0151 138.227 43.9091 133.227 43.9091C129.712 43.9091 126.697 44.4394 124.182 45.5C121.667 46.5606 119.742 48 118.409 49.8182C117.076 51.6364 116.394 53.7121 116.364 56.0455C116.364 57.9848 116.803 59.6667 117.682 61.0909C118.591 62.5152 119.818 63.7273 121.364 64.7273C122.909 65.697 124.621 66.5151 126.5 67.1818C128.379 67.8485 130.273 68.4091 132.182 68.8636L140.909 71.0455C144.424 71.8636 147.803 72.9697 151.045 74.3636C154.318 75.7576 157.242 77.5152 159.818 79.6364C162.424 81.7576 164.485 84.3182 166 87.3182C167.515 90.3182 168.273 93.8333 168.273 97.8636C168.273 103.318 166.879 108.121 164.091 112.273C161.303 116.394 157.273 119.621 152 121.955C146.758 124.258 140.409 125.409 132.955 125.409C125.712 125.409 119.424 124.288 114.091 122.045C108.788 119.803 104.636 116.53 101.636 112.227C98.6667 107.924 97.0606 102.682 96.8182 96.5H113.409C113.652 99.7424 114.652 102.439 116.409 104.591C118.167 106.742 120.455 108.348 123.273 109.409C126.121 110.47 129.303 111 132.818 111C136.485 111 139.697 110.455 142.455 109.364C145.242 108.242 147.424 106.697 149 104.727C150.576 102.727 151.379 100.394 151.409 97.7273C151.379 95.303 150.667 93.303 149.273 91.7273C147.879 90.1212 145.924 88.7879 143.409 87.7273C140.924 86.6364 138.015 85.6667 134.682 84.8182L124.091 82.0909C116.424 80.1212 110.364 77.1364 105.909 73.1364C101.485 69.1061 99.2727 63.7576 99.2727 57.0909C99.2727 51.6061 100.758 46.803 103.727 42.6818C106.727 38.5606 110.803 35.3636 115.955 33.0909C121.106 30.7879 126.939 29.6364 133.455 29.6364C140.061 29.6364 145.848 30.7879 150.818 33.0909C155.818 35.3636 159.742 38.5303 162.591 42.5909C165.439 46.6212 166.909 51.2576 167 56.5H150.773ZM266.489 77.4545C266.489 87.4848 264.61 96.0758 260.852 103.227C257.125 110.348 252.034 115.803 245.58 119.591C239.155 123.379 231.867 125.273 223.716 125.273C215.564 125.273 208.261 123.379 201.807 119.591C195.383 115.773 190.292 110.303 186.534 103.182C182.807 96.0303 180.943 87.4545 180.943 77.4545C180.943 67.4242 182.807 58.8485 186.534 51.7273C190.292 44.5758 195.383 39.1061 201.807 35.3182C208.261 31.5303 215.564 29.6364 223.716 29.6364C231.867 29.6364 239.155 31.5303 245.58 35.3182C252.034 39.1061 257.125 44.5758 260.852 51.7273C264.61 58.8485 266.489 67.4242 266.489 77.4545ZM249.534 77.4545C249.534 70.3939 248.428 64.4394 246.216 59.5909C244.034 54.7121 241.004 51.0303 237.125 48.5455C233.246 46.0303 228.777 44.7727 223.716 44.7727C218.655 44.7727 214.186 46.0303 210.307 48.5455C206.428 51.0303 203.383 54.7121 201.17 59.5909C198.989 64.4394 197.898 70.3939 197.898 77.4545C197.898 84.5151 198.989 90.4848 201.17 95.3636C203.383 100.212 206.428 103.894 210.307 106.409C214.186 108.894 218.655 110.136 223.716 110.136C228.777 110.136 233.246 108.894 237.125 106.409C241.004 103.894 244.034 100.212 246.216 95.3636C248.428 90.4848 249.534 84.5151 249.534 77.4545ZM282.432 124V30.9091H317.341C324.492 30.9091 330.492 32.2424 335.341 34.9091C340.22 37.5758 343.902 41.2424 346.386 45.9091C348.902 50.5455 350.159 55.8182 350.159 61.7273C350.159 67.697 348.902 73 346.386 77.6364C343.871 82.2727 340.159 85.9242 335.25 88.5909C330.341 91.2273 324.295 92.5455 317.114 92.5455H293.977V78.6818H314.841C319.023 78.6818 322.447 77.9545 325.114 76.5C327.78 75.0455 329.75 73.0455 331.023 70.5C332.326 67.9545 332.977 65.0303 332.977 61.7273C332.977 58.4242 332.326 55.5152 331.023 53C329.75 50.4848 327.765 48.5303 325.068 47.1364C322.402 45.7121 318.962 45 314.75 45H299.295V124H282.432Z" fill="#18181B"/>
<path d="M389.273 124V30.9091H420.727C428 30.9091 433.97 32.1515 438.636 34.6364C443.303 37.0909 446.758 40.4697 449 44.7727C451.242 49.0758 452.364 53.9697 452.364 59.4545C452.364 64.9394 451.242 69.803 449 74.0455C446.758 78.2879 443.318 81.6212 438.682 84.0455C434.045 86.4394 428.121 87.6364 420.909 87.6364H395.455V77.4545H420.545C425.515 77.4545 429.515 76.7273 432.545 75.2727C435.606 73.8182 437.818 71.7576 439.182 69.0909C440.576 66.3939 441.273 63.1818 441.273 59.4545C441.273 55.7273 440.576 52.4697 439.182 49.6818C437.788 46.8939 435.561 44.7424 432.5 43.2273C429.439 41.6818 425.394 40.9091 420.364 40.9091H400.545V124H389.273ZM433.091 82.1818L456 124H442.909L420.364 82.1818H433.091ZM497.307 125.455C491.004 125.455 485.473 123.955 480.716 120.955C475.989 117.955 472.292 113.758 469.625 108.364C466.989 102.97 465.67 96.6667 465.67 89.4545C465.67 82.1818 466.989 75.8333 469.625 70.4091C472.292 64.9848 475.989 60.7727 480.716 57.7727C485.473 54.7727 491.004 53.2727 497.307 53.2727C503.61 53.2727 509.125 54.7727 513.852 57.7727C518.61 60.7727 522.307 64.9848 524.943 70.4091C527.61 75.8333 528.943 82.1818 528.943 89.4545C528.943 96.6667 527.61 102.97 524.943 108.364C522.307 113.758 518.61 117.955 513.852 120.955C509.125 123.955 503.61 125.455 497.307 125.455ZM497.307 115.818C502.095 115.818 506.034 114.591 509.125 112.136C512.216 109.682 514.504 106.455 515.989 102.455C517.473 98.4545 518.216 94.1212 518.216 89.4545C518.216 84.7879 517.473 80.4394 515.989 76.4091C514.504 72.3788 512.216 69.1212 509.125 66.6364C506.034 64.1515 502.095 62.9091 497.307 62.9091C492.519 62.9091 488.58 64.1515 485.489 66.6364C482.398 69.1212 480.11 72.3788 478.625 76.4091C477.14 80.4394 476.398 84.7879 476.398 89.4545C476.398 94.1212 477.14 98.4545 478.625 102.455C480.11 106.455 482.398 109.682 485.489 112.136C488.58 114.591 492.519 115.818 497.307 115.818ZM573.682 125.455C567.136 125.455 561.5 123.909 556.773 120.818C552.045 117.727 548.409 113.47 545.864 108.045C543.318 102.621 542.045 96.4242 542.045 89.4545C542.045 82.3636 543.348 76.1061 545.955 70.6818C548.591 65.2273 552.258 60.9697 556.955 57.9091C561.682 54.8182 567.197 53.2727 573.5 53.2727C578.409 53.2727 582.833 54.1818 586.773 56C590.712 57.8182 593.939 60.3636 596.455 63.6364C598.97 66.9091 600.53 70.7273 601.136 75.0909H590.409C589.591 71.9091 587.773 69.0909 584.955 66.6364C582.167 64.1515 578.409 62.9091 573.682 62.9091C569.5 62.9091 565.833 64 562.682 66.1818C559.561 68.3333 557.121 71.3788 555.364 75.3182C553.636 79.2273 552.773 83.8182 552.773 89.0909C552.773 94.4848 553.621 99.1818 555.318 103.182C557.045 107.182 559.47 110.288 562.591 112.5C565.742 114.712 569.439 115.818 573.682 115.818C576.47 115.818 579 115.333 581.273 114.364C583.545 113.394 585.47 112 587.045 110.182C588.621 108.364 589.742 106.182 590.409 103.636H601.136C600.53 107.758 599.03 111.47 596.636 114.773C594.273 118.045 591.136 120.652 587.227 122.591C583.348 124.5 578.833 125.455 573.682 125.455ZM626.818 98.5455L626.636 85.2727H628.818L659.364 54.1818H672.636L640.091 87.0909H639.182L626.818 98.5455ZM616.818 124V30.9091H627.545V124H616.818ZM661.182 124L633.909 89.4545L641.545 82L674.818 124H661.182ZM712.841 125.455C706.114 125.455 700.311 123.97 695.432 121C690.583 118 686.841 113.818 684.205 108.455C681.598 103.061 680.295 96.7879 680.295 89.6364C680.295 82.4848 681.598 76.1818 684.205 70.7273C686.841 65.2424 690.508 60.9697 695.205 57.9091C699.932 54.8182 705.447 53.2727 711.75 53.2727C715.386 53.2727 718.977 53.8788 722.523 55.0909C726.068 56.303 729.295 58.2727 732.205 61C735.114 63.697 737.432 67.2727 739.159 71.7273C740.886 76.1818 741.75 81.6667 741.75 88.1818V92.7273H687.932V83.4545H730.841C730.841 79.5151 730.053 76 728.477 72.9091C726.932 69.8182 724.72 67.3788 721.841 65.5909C718.992 63.803 715.629 62.9091 711.75 62.9091C707.477 62.9091 703.78 63.9697 700.659 66.0909C697.568 68.1818 695.189 70.9091 693.523 74.2727C691.856 77.6364 691.023 81.2424 691.023 85.0909V91.2727C691.023 96.5455 691.932 101.015 693.75 104.682C695.598 108.318 698.159 111.091 701.432 113C704.705 114.879 708.508 115.818 712.841 115.818C715.659 115.818 718.205 115.424 720.477 114.636C722.78 113.818 724.765 112.606 726.432 111C728.098 109.364 729.386 107.333 730.295 104.909L740.659 107.818C739.568 111.333 737.735 114.424 735.159 117.091C732.583 119.727 729.402 121.788 725.614 123.273C721.826 124.727 717.568 125.455 712.841 125.455ZM788.432 54.1818V63.2727H752.25V54.1818H788.432ZM762.795 37.4545H773.523V104C773.523 107.03 773.962 109.303 774.841 110.818C775.75 112.303 776.902 113.303 778.295 113.818C779.72 114.303 781.22 114.545 782.795 114.545C783.977 114.545 784.947 114.485 785.705 114.364C786.462 114.212 787.068 114.091 787.523 114L789.705 123.636C788.977 123.909 787.962 124.182 786.659 124.455C785.356 124.758 783.705 124.909 781.705 124.909C778.674 124.909 775.705 124.258 772.795 122.955C769.917 121.652 767.523 119.667 765.614 117C763.735 114.333 762.795 110.97 762.795 106.909V37.4545Z" fill="#18181B"/>
</svg>
